<?xml version="1.0" encoding="iso-8859-1"?>
<!-- Generator: Adobe Illustrator 18.0.0, SVG Export Plug-In . SVG Version: 6.00 Build 0)  -->
<!DOCTYPE svg PUBLIC "-//W3C//DTD SVG 1.1//EN" "http://www.w3.org/Graphics/SVG/1.1/DTD/svg11.dtd">
<svg version="1.1" id="_x31_" xmlns="http://www.w3.org/2000/svg" xmlns:xlink="http://www.w3.org/1999/xlink" x="0px" y="0px"
	 viewBox="0 0 512 512" style="enable-background:new 0 0 512 512;" xml:space="preserve">
<g>
	<rect style="fill:#9CD1AB;" width="512" height="512"/>
	<path style="opacity:0.1;fill:#040000;" d="M512,254.669V512H247.757l-74.803-74.803c5.734-8.96,16.64-15.77,16.64-15.77v-23.91
		c-11.674-5.018-19.456-15.309-21.658-26.983c-11.776,2.406-24.525-0.973-33.638-10.087c-9.165-9.113-12.493-21.862-10.086-33.638
		c-11.827-2.253-22.323-10.24-27.29-22.169c-4.966-11.93-3.174-24.986,3.584-34.97c-10.035-6.605-16.691-17.971-16.691-30.925
		c0-12.903,6.605-24.269,16.64-30.925c-6.758-9.933-8.55-22.989-3.584-34.969c4.915-11.93,15.411-19.917,27.238-22.17
		c-2.457-11.674,0.87-24.32,9.779-33.434c-0.461-7.014,2.048-11.673,7.782-11.264c2.662,0.205,5.734,0.665,9.063,1.433
		c5.581-1.485,11.417-1.638,17.05-0.512c2.253-11.827,10.189-22.323,22.169-27.29c11.93-4.966,24.986-3.174,34.97,3.533
		c6.605-10.035,17.971-16.64,30.874-16.691c12.902,0,24.32,6.605,30.925,16.64c9.984-6.758,23.04-8.55,34.97-3.635
		c11.981,4.967,19.968,15.411,22.221,27.238c3.379-0.666,6.81-0.922,10.189-0.666c0.615,0.051,1.229,0.102,1.843,0.205
		c0.409,0.051,0.87,0.102,1.28,0.205c0.614,0.051,1.229,0.205,1.843,0.307c0.819,0.154,1.639,0.358,2.458,0.614h0.051
		c0.87-0.205,1.741-0.358,2.56-0.563L512,254.669z"/>
	<g>
		<g>
			<g>
				<path style="fill:#595758;" d="M219.955,360.755c0,0,0,18.125,0,36.352v32.102c0,14.234-18.022,23.091-30.976,24.013
					c-1.792,0.154-3.482,0.103-5.018-0.051c-4.915-0.512-5.632-4.25-4.966-6.349c-7.731,2.099-10.598-2.816-6.349-9.165
					c0.103-0.153,0.205-0.307,0.308-0.461c5.734-8.96,16.64-15.77,16.64-15.77v-56.474L219.955,360.755z"/>
				<path style="fill:#595758;" d="M322.405,364.973v56.45c0,0,11.295,7.057,16.935,16.232c4.235,6.35,1.41,11.29-6.345,9.173
					c0.705,2.118-0.035,5.808-4.945,6.35c-12.7,1.41-35.986-7.762-35.986-23.992s0-68.445,0-68.445L322.405,364.973z"/>
			</g>
			<path style="fill:#FFFFFF;" d="M428.186,238.387v0.358c0,12.902-6.656,24.269-16.691,30.925c6.758,9.933,8.55,22.989,3.584,34.97
				c-4.967,11.929-15.463,19.917-27.238,22.169c2.355,11.776-0.973,24.474-10.138,33.638c-9.114,9.114-21.862,12.493-33.638,10.087
				c-0.307,1.485-0.666,2.918-1.127,4.352c-0.102,0.307-0.205,0.666-0.307,0.973c-0.256,0.768-0.563,1.485-0.87,2.202
				c-1.024,2.407-2.304,4.711-3.789,6.861c-0.461,0.614-0.922,1.229-1.382,1.792c-2.714,3.431-6.093,6.4-10.035,8.755
				c-0.666,0.358-1.331,0.717-1.997,1.024c-0.717,0.358-1.434,0.717-2.151,1.024c-0.154,0.102-0.358,0.205-0.512,0.256
				c-9.984,4.147-20.736,3.584-29.85-0.666c-0.87-0.41-1.741-0.87-2.611-1.383c-0.871-0.461-1.69-0.973-2.509-1.536
				c-6.605,10.035-18.022,16.64-30.925,16.64h-0.205c-12.8-0.051-24.115-6.656-30.72-16.64c-1.638,1.126-3.328,2.099-5.12,2.918
				c-9.063,4.25-19.814,4.813-29.85,0.666c-0.154-0.051-0.358-0.154-0.512-0.256c-11.674-5.018-19.456-15.309-21.658-26.983
				c-11.776,2.406-24.525-0.973-33.638-10.087c-9.165-9.113-12.493-21.862-10.086-33.638c-11.827-2.253-22.323-10.24-27.29-22.169
				c-4.966-11.93-3.174-24.986,3.584-34.97c-10.035-6.605-16.691-17.971-16.691-30.925c0-12.903,6.605-24.269,16.64-30.925
				c-6.758-9.933-8.55-22.989-3.584-34.969c4.915-11.93,15.411-19.917,27.238-22.17c-2.457-11.674,0.87-24.32,9.779-33.434
				l0.256-0.256c4.761-4.762,10.496-7.987,16.589-9.574c5.581-1.485,11.417-1.638,17.05-0.512
				c2.253-11.827,10.189-22.323,22.169-27.29c11.93-4.966,24.986-3.174,34.97,3.533c6.605-10.035,17.971-16.64,30.874-16.691
				c12.902,0,24.32,6.605,30.925,16.64c9.984-6.758,23.04-8.55,34.97-3.635c11.981,4.967,19.968,15.411,22.221,27.238
				c3.379-0.666,6.81-0.922,10.189-0.666c0.615,0.051,1.229,0.102,1.843,0.205c0.409,0.051,0.87,0.102,1.28,0.205
				c0.614,0.051,1.229,0.205,1.843,0.307c0.819,0.154,1.639,0.358,2.458,0.614h0.051c1.69,0.461,3.328,1.024,4.915,1.792
				c4.045,1.741,7.833,4.301,11.11,7.577c0.154,0.153,0.307,0.307,0.461,0.512l0.051,0.051c0.819,0.87,1.638,1.792,2.355,2.714
				c0.768,0.973,1.485,1.946,2.15,2.969c0.973,1.536,1.843,3.175,2.56,4.864l0.051,0.051c0.256,0.461,0.41,0.922,0.614,1.434
				c0.461,1.075,0.819,2.202,1.127,3.328c0.666,2.201,1.075,4.454,1.331,6.707c0.307,3.687,0.102,7.373-0.615,11.008
				c11.828,2.253,22.323,10.189,27.29,22.118c5.018,11.929,3.226,25.037-3.482,34.969
				C421.53,214.067,428.134,225.433,428.186,238.387z"/>
			<path style="fill:#595758;" d="M378.112,117.299c-0.102,0.973-0.205,1.997-0.409,3.072
				c-3.123,17.562-22.323,45.312-55.347,49.152c0,0,0,53.606,0,70.554c0,16.947-38.144,32.461-38.144,57.856
				c0,25.395-28.211,24.013-28.211,24.013s-0.051,0-0.205,0c-2.662,0.051-28.007,0.051-28.007-24.013
				c0-25.395-38.144-40.909-38.144-57.856c0-16.948,0-70.554,0-70.554c-35.072-4.045-54.528-35.123-55.757-52.275
				c-0.461-7.014,2.048-11.673,7.782-11.264c2.662,0.205,5.734,0.665,9.063,1.433c11.981,2.56,27.29,8.038,38.349,12.339
				c8.602,3.328,14.694,5.99,14.694,5.99h104.448c0,0,6.093-2.662,14.694-5.99c11.162-4.301,26.573-9.831,38.605-12.391h0.051
				c0.87-0.205,1.741-0.358,2.56-0.563c2.201-0.41,4.301-0.666,6.195-0.819c1.485-0.103,2.765,0.153,3.84,0.665
				c1.331,0.666,2.304,1.843,2.969,3.328c0,0-0.051,0,0,0.051C378.01,111.923,378.266,114.432,378.112,117.299z"/>
			<path style="fill:#FFFFFF;" d="M296.93,91.885c-9.425,0-17.68,4.99-22.27,12.472c-5.035-4.257-11.545-6.83-18.66-6.83
				c-7.115,0-13.625,2.573-18.66,6.83c-4.59-7.482-12.845-12.472-22.265-12.472c-14.42,0-26.11,11.685-26.11,26.105
				c0,14.423,11.69,26.11,26.11,26.11c5.595,0,10.765-1.765,15.02-4.76c4.735,9.515,14.555,16.05,25.905,16.05
				s21.17-6.535,25.91-16.05c4.245,2.995,9.425,4.76,15.02,4.76c14.42,0,26.11-11.687,26.11-26.11
				C323.04,103.57,311.35,91.885,296.93,91.885z"/>
		</g>
		<path style="opacity:0.15;fill:#231815;" d="M428.186,238.387v0.358c0,12.902-6.656,24.269-16.691,30.925
			c6.758,9.933,8.55,22.989,3.584,34.97c-4.967,11.929-15.463,19.917-27.238,22.169c2.355,11.776-0.973,24.474-10.138,33.638
			c-9.114,9.114-21.862,12.493-33.638,10.087c-0.307,1.485-0.666,2.918-1.127,4.352c-0.102,0.307-0.205,0.666-0.307,0.973
			c-0.256,0.768-0.563,1.485-0.87,2.202c-1.024,2.407-2.304,4.711-3.789,6.861c-0.461,0.614-0.87,1.229-1.382,1.792
			c-2.714,3.431-6.093,6.4-10.035,8.755c-0.666,0.358-1.331,0.717-1.997,1.024c-0.717,0.358-1.434,0.717-2.151,1.024v23.91
			c0,0,11.315,7.066,16.948,16.23c4.198,6.349,1.382,11.264-6.349,9.165c0.717,2.099-0.051,5.837-4.966,6.349
			c-12.698,1.434-35.994-7.731-35.994-23.962v-32.102c-0.87-0.41-1.741-0.87-2.611-1.383c-0.871-0.461-1.69-0.973-2.509-1.536
			c-6.605,10.035-18.022,16.64-30.925,16.64h-0.205V66.457c12.902,0,24.32,6.605,30.925,16.64c9.984-6.758,23.04-8.55,34.97-3.635
			c11.981,4.967,19.968,15.411,22.221,27.238c3.379-0.666,6.81-0.922,10.189-0.666c0.615,0.051,1.229,0.102,1.843,0.205
			c0.409,0.051,0.87,0.102,1.28,0.205c0.614,0.051,1.229,0.205,1.843,0.307c0.819,0.154,1.639,0.358,2.458,0.614h0.051
			c0.87-0.205,1.741-0.358,2.56-0.563c2.201-0.41,4.301-0.666,6.195-0.819c1.485-0.103,2.765,0.153,3.84,0.665
			c1.28,0.717,2.253,1.843,2.969,3.328c0,0-0.051,0,0,0.051c0.819,1.843,1.126,4.352,0.922,7.219l0.051,0.051
			c0.819,0.87,1.638,1.792,2.355,2.714c0.768,0.973,1.485,1.946,2.15,2.969c0.973,1.536,1.843,3.175,2.56,4.864l0.051,0.051
			c0.256,0.461,0.41,0.922,0.614,1.434c0.461,1.075,0.819,2.202,1.127,3.328c0.666,2.201,1.075,4.454,1.331,6.707
			c0.307,3.687,0.102,7.373-0.615,11.008c11.828,2.253,22.323,10.189,27.29,22.118c5.018,11.929,3.226,25.037-3.482,34.969
			C421.53,214.067,428.134,225.433,428.186,238.387z"/>
	</g>
</g>
</svg>
